<svg xmlns="http://www.w3.org/2000/svg" viewBox="0 0 134 40"><circle fill-rule="evenodd" clip-rule="evenodd" fill="#E6E6E6" cx="3.8" cy="20.4" r="3.8"/><circle fill-rule="evenodd" clip-rule="evenodd" fill="#FFF" cx="7.4" cy="9.1" r="3.2"/><circle fill-rule="evenodd" clip-rule="evenodd" fill="#FFF" cx="15.4" cy="3.4" r="3.2"/><circle fill-rule="evenodd" clip-rule="evenodd" fill="#FFF" cx="26.2" cy="3.2" r="3.2"/><circle fill-rule="evenodd" clip-rule="evenodd" fill="#FFF" cx="38" cy="21.1" r="3.2"/><circle fill-rule="evenodd" clip-rule="evenodd" fill="#FFF" cx="34.3" cy="30.5" r="2.5"/><circle fill-rule="evenodd" clip-rule="evenodd" fill="#FFF" cx="15.6" cy="36.8" r="3.2"/><circle fill-rule="evenodd" clip-rule="evenodd" fill="#D4F418" cx="26.2" cy="36.8" r="3.2"/><circle fill-rule="evenodd" clip-rule="evenodd" fill="#0E325B" cx="7.5" cy="30.5" r="3.2"/><circle fill-rule="evenodd" clip-rule="evenodd" fill="#D4F418" cx="33.9" cy="10" r="4.7"/><path fill="#FFF" d="M53.7 15.6c-1-.5-1.8-1.3-2.4-2.3-.6-1-.8-2.2-.8-3.5 0-1.3.3-2.5.8-3.5.6-1 1.4-1.8 2.4-2.3 1-.5 2.2-.8 3.6-.8.9 0 1.7.1 2.4.3.7.2 1.4.5 2 .8v3c-.5-.4-1.1-.7-1.8-.9-.7-.2-1.4-.3-2.3-.3-1.2 0-2.2.3-2.9 1-.7.6-1 1.5-1 2.7 0 1.1.3 2 1 2.7.7.6 1.6 1 2.8 1 .9 0 1.6-.1 2.3-.3.7-.2 1.3-.5 1.9-1v3c-1.1.8-2.6 1.2-4.5 1.2-1.3 0-2.5-.3-3.5-.8zM64.7 15.8c-.8-.4-1.4-.9-1.9-1.6-.4-.7-.7-1.5-.7-2.4 0-.9.2-1.7.7-2.4.4-.7 1.1-1.2 1.9-1.6.8-.4 1.7-.6 2.8-.6 1.1 0 2 .2 2.8.6.8.4 1.4.9 1.9 1.6.4.7.7 1.5.7 2.4 0 .9-.2 1.7-.7 2.4-.4.7-1.1 1.2-1.9 1.6-.8.4-1.7.6-2.8.6-1.1 0-2-.2-2.8-.6zm4.3-2.4c.4-.4.6-.9.6-1.6s-.2-1.2-.6-1.6c-.4-.4-.9-.6-1.5-.6s-1.1.2-1.5.6-.6.9-.6 1.6.2 1.2.6 1.6c.4.4.9.6 1.5.6s1.1-.2 1.5-.6zM74.1 7.5H77v.9c.4-.4.8-.7 1.2-.9.5-.2 1-.3 1.5-.3.6 0 1.2.1 1.6.3.4.2.7.5.9.9.4-.4.8-.7 1.3-.9.5-.2 1-.3 1.6-.3 1.1 0 1.9.3 2.4.9.5.6.7 1.4.7 2.5v5.5h-3V11c0-.5-.1-.8-.3-1-.2-.2-.5-.3-.9-.3-.5 0-1 .2-1.3.6V16.1h-3v-5.2c0-.4-.1-.8-.2-1s-.4-.3-.8-.3c-.6 0-1.1.3-1.6 1V16h-3V7.5zM89.7 7.5h3v.9c.8-.8 1.8-1.1 3-1.1.9 0 1.7.2 2.4.6.7.4 1.2.9 1.6 1.6.4.7.6 1.5.6 2.4 0 .9-.2 1.7-.6 2.4s-.9 1.2-1.6 1.6c-.7.4-1.5.6-2.4.6-.6 0-1.1-.1-1.6-.3-.5-.2-1-.4-1.3-.7v4.6h-3.2V7.5zm6.9 5.9c.4-.4.6-.9.6-1.6s-.2-1.2-.6-1.6-.9-.5-1.6-.5c-.5 0-.9.1-1.3.4-.4.2-.7.6-.8 1v1.5c.2.4.4.8.8 1 .4.2.8.4 1.3.4.7-.1 1.2-.2 1.6-.6zM101.9 15.6c-.7-.5-1-1.3-1-2.2 0-1 .3-1.7 1-2.2s1.6-.8 2.8-.8c.5 0 .9.1 1.4.2.5.1.9.2 1.2.4v-.2c0-.9-.8-1.4-2.3-1.4-1.1 0-2 .2-2.9.6V7.8c.4-.2.9-.3 1.5-.4.6-.1 1.3-.2 1.9-.2 1.6 0 2.8.3 3.6 1 .8.6 1.2 1.5 1.2 2.7v5.3h-3v-.7c-.3.3-.7.6-1.2.7s-1.1.3-1.7.3c-1-.1-1.9-.3-2.5-.9zm4.5-1.4c.3-.1.6-.3.7-.6v-.8c-.5-.3-1.1-.5-1.8-.5-.4 0-.7.1-1 .3-.2.2-.3.4-.3.8 0 .3.1.6.3.8.2.2.5.3 1 .3s.8-.1 1.1-.3zM111.8 7.5h3v1.1c.3-.4.8-.7 1.4-.9.6-.2 1.3-.3 2-.3v2.4c-.8 0-1.5.1-2.1.3-.6.2-1 .6-1.2 1v5h-3.2V7.5zM120.3 15.2c-1-.8-1.4-1.9-1.4-3.4 0-1.4.4-2.6 1.3-3.4s2.1-1.2 3.7-1.2c1 0 1.9.2 2.6.6.7.4 1.3.9 1.7 1.6.4.7.6 1.4.6 2.3v1.2h-6.9c.1.5.4.8.9 1 .5.2 1.1.3 2 .3.6 0 1.1 0 1.7-.1.6-.1 1.1-.2 1.5-.4v2.1c-.4.2-1 .3-1.7.4-.7.1-1.3.2-2 .2-1.7 0-3-.4-4-1.2zm5.5-4.3c0-.5-.2-.8-.6-1.1-.3-.3-.8-.4-1.4-.4-.6 0-1 .1-1.4.4s-.5.6-.6 1.1h4zM53 27.1L50.4 29v-3.1l3.1-2.3h2.6v12.6H53v-9.1zM60.1 35.6c-.9-.5-1.5-1.3-2-2.3-.5-1-.7-2.2-.7-3.5 0-1.4.2-2.5.7-3.5.5-1 1.1-1.7 2-2.3.9-.5 1.9-.8 3.1-.8s2.2.3 3.1.8c.9.5 1.5 1.3 2 2.3.5 1 .7 2.2.7 3.5 0 1.4-.2 2.5-.7 3.5-.5 1-1.1 1.7-2 2.3-.9.5-1.9.8-3 .8-1.3 0-2.3-.2-3.2-.8zm4.9-3.1c.4-.6.7-1.5.7-2.6s-.2-2-.7-2.6c-.4-.6-1.1-1-1.9-1s-1.4.3-1.9 1-.7 1.5-.7 2.6.2 2 .7 2.6c.4.6 1.1.9 1.9.9s1.5-.3 1.9-.9z"/><path fill="#E6E6E6" d="M70.2 23.6h5.5c1.5 0 2.6.4 3.5 1.2.9.8 1.3 1.8 1.3 3.2 0 1.4-.4 2.5-1.3 3.3-.9.8-2 1.2-3.5 1.2h-2.3v3.8h-3.2V23.6zm5 6.1c.6 0 1.1-.1 1.5-.4.4-.3.5-.7.5-1.4s-.2-1.1-.5-1.3-.9-.4-1.5-.4h-1.8v3.5h1.8zM81.6 22.8h3.2v5.5c.4-.4.8-.7 1.3-.9.5-.2 1-.3 1.6-.3 1.2 0 2.1.3 2.7.9s.9 1.5.9 2.6V36H88v-5c0-1-.4-1.5-1.3-1.5-.4 0-.8.1-1.1.3-.3.2-.6.5-.8.9V36h-3.2V22.8zM94.6 35.8c-.8-.4-1.4-.9-1.9-1.6-.4-.7-.7-1.5-.7-2.4 0-.9.2-1.7.7-2.4.4-.7 1.1-1.2 1.9-1.6.8-.4 1.7-.6 2.8-.6 1.1 0 2 .2 2.8.6.8.4 1.4.9 1.9 1.6.4.7.7 1.5.7 2.4 0 .9-.2 1.7-.7 2.4-.4.7-1.1 1.2-1.9 1.6-.8.4-1.7.6-2.8.6-1.1 0-2-.2-2.8-.6zm4.3-2.4c.4-.4.6-.9.6-1.6 0-.7-.2-1.2-.6-1.6-.4-.4-.9-.6-1.5-.6s-1.1.2-1.5.6c-.4.4-.6.9-.6 1.6 0 .7.2 1.2.6 1.6.4.4.9.6 1.5.6s1.1-.2 1.5-.6zM104 27.5h3v1c.4-.4.8-.7 1.3-.9.5-.2 1.1-.3 1.6-.3 1.2 0 2.1.3 2.7.9s.9 1.5.9 2.6v5.4h-3.2v-5c0-1-.4-1.5-1.3-1.5-.4 0-.8.1-1.1.3-.3.2-.6.5-.8.9v5.3H104v-8.7zM116.2 35.2c-1-.8-1.4-1.9-1.4-3.4 0-1.4.4-2.6 1.3-3.4s2.1-1.2 3.7-1.2c1 0 1.9.2 2.6.6.7.4 1.3.9 1.7 1.6.4.7.6 1.4.6 2.3v1.2h-6.9c.1.5.4.8.9 1 .5.2 1.1.3 2 .3.6 0 1.1 0 1.7-.1.6-.1 1.1-.2 1.5-.4v2.1c-.4.2-1 .3-1.7.4-.7.1-1.3.2-2 .2-1.8 0-3.1-.4-4-1.2zm5.4-4.3c0-.5-.2-.8-.6-1.1-.3-.3-.8-.4-1.4-.4-.6 0-1 .1-1.4.4-.3.3-.5.6-.6 1.1h4zM127.4 36.2c-.8-.1-1.4-.3-1.8-.6v-2.3c.5.3 1.1.5 1.8.7.7.2 1.3.3 1.9.3.4 0 .7 0 .9-.1.2-.1.3-.2.3-.4 0-.1-.1-.3-.2-.4-.1-.1-.4-.2-.7-.3-.3-.1-.7-.2-1.1-.3-.7-.2-1.3-.4-1.7-.7-.4-.2-.7-.5-.9-.9-.2-.3-.3-.8-.3-1.3 0-.9.4-1.6 1.1-2.1s1.7-.7 3-.7c.6 0 1.3.1 2 .2s1.2.3 1.6.5v2.3c-.4-.2-.8-.4-1.4-.6s-1.1-.2-1.7-.2c-.4 0-.7 0-1 .1-.2.1-.3.2-.3.4s.1.3.3.4c.2.1.6.2 1.2.4.4.1.5.1.5.1.8.2 1.4.4 1.8.7.4.3.7.5.9.9.2.3.3.8.3 1.3 0 .8-.4 1.5-1.1 2-.7.5-1.7.7-3.1.7-.8.1-1.6 0-2.3-.1z"/></svg>